<?xml version="1.0" encoding="UTF-8"?>
<svg xmlns="http://www.w3.org/2000/svg" xmlns:xlink="http://www.w3.org/1999/xlink" width="2095" height="2095" viewBox="0 0 2095 2095">
<path fill-rule="nonzero" fill="rgb(99.609375%, 99.609375%, 99.609375%)" fill-opacity="1" d="M 1.453125 0 C 1.066406 0 0.699219 0.148438 0.425781 0.429688 C 0.152344 0.699219 0 1.070312 0 1.449219 L 0 2092.835938 C 0 2093.640625 0.652344 2094.289062 1.453125 2094.289062 L 2092.839844 2094.289062 C 2093.21875 2094.289062 2093.589844 2094.136719 2093.871094 2093.863281 C 2094.140625 2093.59375 2094.289062 2093.222656 2094.289062 2092.839844 L 2094.289062 1.449219 C 2094.289062 0.648438 2093.640625 0 2092.839844 0 Z M 1.453125 0 "/>
<path fill-rule="nonzero" fill="rgb(0%, 0%, 0%)" fill-opacity="1" d="M 1089.941406 1258.328125 C 1089.941406 1265.371094 1089.941406 1272.417969 1089.941406 1279.464844 L 1082.53125 1279.464844 C 1081.179688 1272.660156 1080.019531 1266.78125 1079.039062 1261.832031 L 1078.339844 1258.328125 Z M 984.390625 1277.75 L 984.394531 1277.753906 L 984.394531 1311.195312 C 984.203125 1311.230469 984.015625 1311.296875 983.839844 1311.390625 L 969.554688 1319.214844 L 962.730469 1315.273438 L 962.726562 1315.269531 C 969.949219 1302.765625 977.167969 1290.257812 984.390625 1277.75 Z M 1091.601562 1346.601562 C 1091.609375 1359.910156 1091.601562 1373.222656 1091.601562 1386.535156 L 1091.601562 1386.539062 C 1079.628906 1379.621094 1067.660156 1372.707031 1055.679688 1365.792969 L 1055.679688 1365.789062 L 1059.589844 1357.101562 L 1087.960938 1357.101562 C 1088.988281 1357.101562 1089.828125 1356.261719 1089.828125 1355.230469 L 1089.828125 1346.601562 Z M 1014.210938 882.75 C 1012.921875 882.75 1011.691406 883.261719 1010.789062 884.160156 C 1009.878906 885.070312 1009.371094 886.300781 1009.371094 887.578125 L 1009.371094 929.671875 L 929.921875 929.671875 L 790.859375 978.160156 C 790.859375 987.808594 790.859375 997.46875 790.859375 1007.128906 L 790.847656 1007.128906 L 446.886719 1042.660156 L 446.886719 988.070312 C 446.886719 987.28125 446.570312 986.519531 446.011719 985.960938 C 445.449219 985.398438 444.6875 985.078125 443.894531 985.078125 L 437.484375 985.089844 C 436.457031 974.71875 434.6875 965.128906 432.152344 956.339844 L 432.167969 956.351562 C 436.152344 957.511719 440.8125 958.609375 446.144531 959.640625 C 469.378906 964.109375 500.375 966.839844 539.132812 967.71875 C 545.585938 967.859375 551.910156 967.871094 558.097656 967.871094 C 590.828125 967.871094 619.792969 966.421875 644.992188 963.480469 C 674.753906 960.011719 692.699219 955.339844 698.832031 949.53125 L 700.128906 946.648438 C 699.113281 940.621094 685.273438 935.609375 658.605469 931.609375 C 631.941406 927.609375 598.527344 925.378906 558.367188 925.378906 C 518.207031 925.378906 484.796875 927.609375 458.128906 931.609375 C 443.4375 933.820312 432.640625 936.320312 425.734375 939.140625 C 425.710938 939.089844 425.691406 939.050781 425.667969 939 C 417.410156 921.5 406.566406 911.410156 392.785156 910.671875 C 392.730469 910.671875 392.675781 910.660156 392.625 910.660156 L 392.625 910.671875 C 392.605469 910.671875 392.582031 910.671875 392.5625 910.671875 C 392.476562 910.671875 392.390625 910.671875 392.304688 910.679688 L 392.300781 910.691406 C 378.59375 911.488281 367.808594 921.570312 359.582031 939 C 359.46875 939.238281 359.355469 939.480469 359.242188 939.71875 C 357.980469 939.210938 356.589844 938.71875 355.074219 938.230469 C 351.683594 937.140625 347.621094 936.261719 342.996094 935.109375 C 341.335938 934.699219 333.066406 933.039062 317.980469 931.03125 C 292.964844 927.710938 262.578125 926.121094 226.878906 926.070312 C 226.457031 926.070312 226.035156 926.070312 225.613281 926.070312 C 208.25 926.070312 192.152344 926.519531 177.332031 927.410156 C 158.929688 928.519531 148.3125 929.558594 145.417969 929.921875 C 138.839844 930.730469 132.566406 931.410156 126.640625 932.300781 C 120.714844 933.191406 115.449219 934.261719 110.761719 935.109375 C 107.664062 935.679688 102.007812 936.941406 94.074219 939.898438 C 88.480469 941.980469 85.570312 944.660156 85.121094 947.339844 L 86.414062 950.21875 C 89.140625 952.800781 94.199219 955.160156 101.59375 957.28125 C 105.289062 958.339844 109.554688 959.429688 114.433594 960.289062 C 127.597656 962.640625 136.230469 963.730469 140.253906 964.171875 C 153.585938 965.601562 167.941406 966.851562 183.363281 967.578125 C 191.074219 967.949219 199.046875 968.25 207.28125 968.371094 C 218.328125 968.53125 227.144531 968.550781 233.726562 968.550781 C 239.6875 968.550781 243.816406 968.460938 246.117188 968.398438 C 263.339844 967.960938 279.039062 967.328125 293.191406 966.128906 C 310.226562 964.679688 319.953125 963.441406 322.460938 963.039062 C 328.375 962.101562 333.945312 961.359375 339.101562 960.328125 C 344.425781 959.261719 349.015625 958.109375 352.898438 956.980469 L 352.914062 956.980469 C 350.476562 965.589844 348.765625 974.960938 347.765625 985.089844 L 341.351562 985.089844 C 339.699219 985.089844 338.359375 986.429688 338.359375 988.078125 L 338.359375 1102.671875 C 338.359375 1103.367188 338.605469 1104.046875 339.050781 1104.582031 L 354.125 1122.726562 C 354.691406 1123.414062 355.535156 1123.808594 356.425781 1123.808594 L 392.625 1123.808594 L 428.824219 1123.8125 C 429.710938 1123.804688 430.554688 1123.410156 431.125 1122.726562 L 446.195312 1104.582031 C 446.644531 1104.042969 446.886719 1103.367188 446.886719 1102.667969 L 446.886719 1097.570312 L 794.722656 1136.660156 L 810.410156 1153.207031 L 784.695312 1153.210938 C 784.695312 1165.960938 784.695312 1178.714844 784.695312 1191.46875 C 784.695312 1290.828125 784.695312 1390.191406 784.695312 1489.550781 C 795.867188 1489.550781 807.042969 1489.550781 818.214844 1489.550781 C 818.214844 1390.1875 818.214844 1290.828125 818.214844 1191.46875 L 846.671875 1191.472656 L 860.460938 1206.015625 C 863.894531 1206.015625 867.328125 1206.015625 870.761719 1206.015625 L 870.773438 1206.019531 C 870.773438 1208.742188 870.773438 1211.472656 870.773438 1214.195312 L 938.050781 1258.328125 C 953.496094 1258.328125 968.941406 1258.328125 984.382812 1258.328125 L 984.394531 1258.332031 L 984.394531 1259.511719 L 984.390625 1259.507812 C 974.535156 1276.574219 964.679688 1293.640625 954.828125 1310.710938 L 945.753906 1305.46875 L 951.429688 1295.636719 L 951.421875 1295.636719 C 936.796875 1287.191406 922.175781 1278.75 907.550781 1270.304688 C 896.367188 1289.675781 885.183594 1309.046875 874 1328.417969 L 895.9375 1341.082031 L 917.878906 1353.746094 L 922.558594 1345.644531 L 930.523438 1350.242188 L 930.527344 1350.246094 C 927.796875 1354.976562 925.066406 1359.703125 922.335938 1364.433594 C 948.234375 1379.390625 974.136719 1394.34375 1000.039062 1409.296875 L 1000.039062 1409.300781 C 999.324219 1410.542969 998.605469 1411.789062 997.886719 1413.03125 L 1043.859375 1439.570312 L 1089.828125 1466.113281 C 1090.550781 1464.871094 1091.269531 1463.628906 1091.980469 1462.382812 L 1091.980469 1462.386719 C 1100.640625 1467.382812 1109.300781 1472.378906 1117.949219 1477.375 C 1118.210938 1476.914062 1118.480469 1476.457031 1118.75 1475.996094 L 1118.75 1476 C 1128.121094 1481.40625 1137.488281 1486.820312 1146.859375 1492.230469 C 1150.820312 1485.367188 1154.789062 1478.507812 1158.75 1471.648438 L 1268.179688 1534.828125 C 1268.421875 1534.96875 1268.679688 1535.03125 1268.941406 1535.03125 L 1268.941406 1535.035156 C 1269.46875 1535.03125 1269.988281 1534.757812 1270.269531 1534.265625 L 1272.410156 1530.570312 L 1280.988281 1535.523438 L 1319.449219 1557.730469 L 1318.351562 1559.640625 C 1317.789062 1560.613281 1317.640625 1561.773438 1317.929688 1562.859375 C 1318.21875 1563.945312 1318.929688 1564.871094 1319.898438 1565.429688 L 1319.898438 1565.433594 L 1343.550781 1579.085938 L 1367.199219 1592.742188 C 1367.871094 1593.128906 1368.601562 1593.308594 1369.320312 1593.3125 C 1370.789062 1593.308594 1372.210938 1592.550781 1373 1591.191406 L 1382.539062 1574.667969 C 1383.710938 1572.640625 1383.011719 1570.046875 1380.980469 1568.875 L 1333.679688 1541.566406 C 1333.03125 1541.191406 1332.300781 1541 1331.558594 1541 C 1331.191406 1541 1330.820312 1541.046875 1330.460938 1541.140625 C 1329.378906 1541.433594 1328.449219 1542.144531 1327.890625 1543.117188 L 1326.789062 1545.027344 L 1326.789062 1545.023438 C 1311.109375 1535.972656 1295.421875 1526.917969 1279.738281 1517.863281 L 1279.738281 1517.867188 L 1281.878906 1514.167969 C 1282.300781 1513.433594 1282.050781 1512.496094 1281.320312 1512.074219 L 1281.320312 1512.078125 L 1171.410156 1448.625 L 1174.5 1443.28125 C 1174.648438 1443.015625 1174.558594 1442.679688 1174.300781 1442.527344 C 1173.390625 1442 1172.480469 1441.476562 1171.578125 1440.953125 L 1171.578125 1440.957031 L 1171.570312 1440.953125 C 1171.488281 1440.90625 1171.390625 1440.878906 1171.300781 1440.878906 L 1171.28125 1440.882812 C 1171.238281 1440.878906 1171.199219 1440.886719 1171.160156 1440.898438 C 1171.019531 1440.9375 1170.890625 1441.027344 1170.820312 1441.15625 L 1170.398438 1441.878906 C 1159.371094 1433.976562 1148.339844 1426.070312 1137.308594 1418.164062 L 1137.308594 1418.160156 C 1138.070312 1416.851562 1138.820312 1415.542969 1139.578125 1414.230469 C 1127.988281 1407.542969 1116.398438 1400.851562 1104.808594 1394.160156 L 1104.808594 1346.601562 L 1126.710938 1346.601562 C 1128.03125 1346.601562 1129.101562 1345.53125 1129.101562 1344.207031 L 1129.101562 1323.90625 L 1142.140625 1323.910156 L 1142.140625 1305.554688 L 1121.511719 1305.554688 C 1121.511719 1296.859375 1121.511719 1288.160156 1121.511719 1279.464844 L 1113.410156 1279.464844 C 1113.410156 1272.417969 1113.410156 1265.375 1113.410156 1258.328125 L 1155.71875 1258.328125 L 1223 1214.195312 C 1223 1211.46875 1223 1208.742188 1223 1206.015625 C 1226.609375 1206.015625 1230.21875 1206.015625 1233.828125 1206.015625 L 1247.621094 1191.46875 L 1276.070312 1191.472656 C 1276.070312 1290.828125 1276.070312 1390.1875 1276.070312 1489.550781 C 1287.25 1489.550781 1298.421875 1489.550781 1309.589844 1489.550781 C 1309.589844 1390.191406 1309.589844 1290.828125 1309.589844 1191.46875 C 1309.589844 1178.714844 1309.589844 1165.960938 1309.589844 1153.207031 L 1283.878906 1153.210938 L 1299.558594 1136.660156 L 1647.398438 1097.566406 L 1647.398438 1102.667969 C 1647.398438 1103.367188 1647.648438 1104.042969 1648.089844 1104.582031 L 1663.160156 1122.726562 C 1663.730469 1123.410156 1664.578125 1123.808594 1665.46875 1123.808594 L 1701.660156 1123.804688 L 1737.859375 1123.8125 C 1738.75 1123.808594 1739.601562 1123.410156 1740.171875 1122.726562 L 1755.238281 1104.582031 C 1755.679688 1104.046875 1755.929688 1103.367188 1755.929688 1102.671875 L 1755.929688 988.078125 C 1755.929688 987.28125 1755.609375 986.519531 1755.058594 985.960938 C 1754.488281 985.398438 1753.730469 985.089844 1752.941406 985.089844 L 1746.519531 985.089844 C 1745.5 974.710938 1743.730469 965.128906 1741.191406 956.339844 C 1745.179688 957.5 1749.851562 958.609375 1755.191406 959.640625 C 1778.421875 964.109375 1809.421875 966.839844 1848.179688 967.710938 C 1854.628906 967.859375 1860.949219 967.871094 1867.140625 967.871094 C 1899.871094 967.871094 1928.839844 966.421875 1954.039062 963.480469 C 1983.800781 960.011719 2001.738281 955.339844 2007.878906 949.53125 L 2009.171875 946.640625 C 2008.160156 940.621094 1994.320312 935.609375 1967.648438 931.609375 C 1940.980469 927.609375 1907.570312 925.378906 1867.410156 925.378906 C 1827.25 925.378906 1793.839844 927.609375 1767.171875 931.609375 C 1752.480469 933.820312 1741.679688 936.320312 1734.78125 939.140625 C 1734.75 939.089844 1734.730469 939.039062 1734.710938 939 C 1726.449219 921.5 1715.609375 911.410156 1701.820312 910.671875 C 1701.769531 910.660156 1701.71875 910.660156 1701.660156 910.660156 L 1701.660156 910.671875 C 1701.640625 910.660156 1701.628906 910.660156 1701.609375 910.660156 C 1701.519531 910.660156 1701.429688 910.671875 1701.351562 910.679688 L 1701.339844 910.679688 C 1687.640625 911.480469 1676.851562 921.570312 1668.628906 939 C 1668.511719 939.230469 1668.398438 939.480469 1668.289062 939.71875 C 1667.019531 939.210938 1665.628906 938.71875 1664.121094 938.230469 C 1660.71875 937.140625 1656.660156 936.261719 1652.039062 935.109375 C 1650.378906 934.699219 1642.109375 933.039062 1627.019531 931.03125 C 1602 927.710938 1571.621094 926.109375 1535.921875 926.070312 C 1535.5 926.070312 1535.078125 926.070312 1534.660156 926.070312 C 1517.289062 926.070312 1501.191406 926.519531 1486.378906 927.410156 C 1467.96875 928.519531 1457.359375 929.558594 1454.460938 929.910156 C 1447.878906 930.730469 1441.609375 931.410156 1435.679688 932.300781 C 1429.761719 933.191406 1424.488281 934.261719 1419.808594 935.109375 C 1416.710938 935.679688 1411.050781 936.941406 1403.109375 939.898438 C 1397.519531 941.980469 1394.609375 944.660156 1394.160156 947.328125 L 1395.460938 950.21875 C 1398.179688 952.800781 1403.238281 955.160156 1410.628906 957.28125 C 1414.328125 958.339844 1418.601562 959.421875 1423.46875 960.289062 C 1436.640625 962.640625 1445.269531 963.730469 1449.300781 964.171875 C 1462.628906 965.601562 1476.980469 966.851562 1492.410156 967.578125 C 1500.109375 967.949219 1508.089844 968.25 1516.320312 968.371094 C 1527.371094 968.53125 1536.191406 968.550781 1542.769531 968.550781 C 1548.730469 968.550781 1552.859375 968.460938 1555.160156 968.398438 C 1572.378906 967.960938 1588.078125 967.328125 1602.230469 966.121094 C 1619.269531 964.679688 1629 963.441406 1631.5 963.039062 C 1637.421875 962.101562 1642.988281 961.359375 1648.140625 960.320312 C 1653.46875 959.261719 1658.070312 958.101562 1661.960938 956.96875 L 1661.960938 956.980469 C 1659.519531 965.589844 1657.808594 974.960938 1656.808594 985.078125 L 1656.808594 985.089844 L 1650.390625 985.089844 C 1648.738281 985.089844 1647.398438 986.429688 1647.398438 988.078125 L 1647.398438 1042.660156 L 1303.441406 1007.128906 L 1303.429688 1007.128906 C 1303.429688 997.46875 1303.429688 987.808594 1303.429688 978.148438 L 1164.371094 929.671875 L 1084.921875 929.671875 L 1084.921875 887.578125 C 1084.921875 884.910156 1082.75 882.75 1080.089844 882.75 Z M 1014.210938 882.75 "/>
</svg>
