<?xml version="1.0" encoding="UTF-8" standalone="no"?>
<!-- Created with Inkscape (http://www.inkscape.org/) -->

<svg
   version="1.1"
   id="svg1"
   width="4000"
   height="4000"
   viewBox="0 0 4000 4000"
   sodipodi:docname="vecteezy_a-speech-bubble-with-a-line-through-it_50743648.eps"
   xmlns:inkscape="http://www.inkscape.org/namespaces/inkscape"
   xmlns:sodipodi="http://sodipodi.sourceforge.net/DTD/sodipodi-0.dtd"
   xmlns="http://www.w3.org/2000/svg"
   xmlns:svg="http://www.w3.org/2000/svg">
  <defs
     id="defs1" />
  <sodipodi:namedview
     id="namedview1"
     pagecolor="#ffffff"
     bordercolor="#000000"
     borderopacity="0.25"
     inkscape:showpageshadow="2"
     inkscape:pageopacity="0.0"
     inkscape:pagecheckerboard="0"
     inkscape:deskcolor="#d1d1d1">
    <inkscape:page
       x="0"
       y="0"
       inkscape:label="1"
       id="page1"
       width="4000"
       height="4000"
       margin="0"
       bleed="0" />
  </sodipodi:namedview>
  <g
     id="g1"
     inkscape:groupmode="layer"
     inkscape:label="1">
    <g
       id="group-R5">
      <path
         id="path2"
         d="m 26854.5,14496.8 c -431.3,-232.6 -588.9,-773.4 -350.5,-1201.2 491,-881.2 443.4,-1912.6 -127.3,-2759.1 -564.1,-836.8 -1501.3,-1261.4 -2506.8,-1136.3 -481.6,60.4 -920.4,-281.5 -980.6,-762.9 -120.4,-962.9 -735,-1753 -1643.9,-2113.8 -909.7,-361.1 -1899.9,-207.1 -2648.6,411.8 -418,345.7 -1045.2,232.9 -1318.2,-233.2 -478.8,-817.8 -1329.6,-1305.9 -2275.9,-1305.9 -946.6,0 -1797.6,488.1 -2276.5,1305.9 -272.5,465.4 -899.3,579.4 -1318.1,233.2 -1037.7,-857.7 -2329.07,-693.4 -3148.38,-150.2 -309.9,205.5 -715.55,193.7 -1012.91,-29.5 l -4315.02,-3237 2090.04,5019.6 c 176.13,423.1 -2.41,910.6 -410.22,1119.7 -1261.93,647.2 -1870.72,2274 -1110.88,3637.6 238.54,428 80.51,968.8 -350.5,1201.2 -1850.34,998 -1849.4,3647.1 0,4644.5 431.42,232.7 588.8,773.5 350.5,1201.3 -1041.79,1869.7 476.19,4163.7 2634.2,3895.3 481.23,-60.5 920.28,281.6 980.51,762.9 120.47,962.9 735,1753.1 1643.91,2113.8 909.72,361 1899.85,207.1 2648.65,-411.9 419.1,-346.4 1045.8,-231.9 1318.1,233.3 478.9,817.7 1329.7,1305.9 2275.9,1305.9 946.7,0 1797.7,-488.2 2276.5,-1305.9 272.7,-465.5 899.4,-579.4 1318.2,-233.3 748.7,618.8 1738.8,772.8 2648.7,411.7 908.9,-360.7 1523.4,-1150.8 1643.8,-2113.6 60.3,-481.5 499.3,-822.9 980.5,-762.9 2161.7,269.2 3673.5,-2030.5 2634.2,-3895.3 -238.6,-428.1 -80.5,-968.8 350.5,-1201.3 867.6,-467.9 1385.7,-1335.9 1385.7,-2322.1 0.1,-986.1 -517.9,-1854.2 -1385.6,-2322.3 z m 1516,5741.3 c 896.5,2687.7 -1004.8,5623.3 -3909.6,5773.8 -815.5,2592.2 -3839.9,3808.5 -6213.4,2559.7 -1723.3,1900.9 -4760.6,1908.2 -6490.2,0.1 -2371.47,1247.7 -5399.65,34.4 -6214.4,-2562.8 C 2653.29,25840.7 729.074,22949.1 1634.17,20238 -535.965,18503.4 -540.359,15139.1 1633.35,13400.9 1029.48,11603.9 1681.4,9661.7 3117.65,8537.3 L 71.125,1220.6 C -271.238,398.203 695.617,-355.898 1409.64,179.801 L 7843.06,5006 c 1255.9,-599.2 2698.84,-571.7 3912.84,62 1723.8,-1903.1 4760.9,-1910.7 6491.5,-1.4 2377.4,-1250.6 5399.2,-29.3 6213.5,2559.7 2913.2,151.3 4803.2,3094.3 3909.6,5773.9 2171,1735 2174.4,5100.1 0,6837.9 v 0"
         style="fill:#000000;fill-opacity:1;fill-rule:nonzero;stroke:none"
         transform="matrix(0.13333333,0,0,-0.13333333,0,4000)" />
      <path
         id="path3"
         d="M 22027.5,21153.1 H 7973.72 c -485.33,0 -878.73,-393.4 -878.73,-878.8 0,-485.3 393.4,-878.8 878.73,-878.8 H 22027.6 c 485.3,0 878.7,393.5 878.7,878.8 0,485.4 -393.4,878.8 -878.8,878.8"
         style="fill:#000000;fill-opacity:1;fill-rule:nonzero;stroke:none"
         transform="matrix(0.13333333,0,0,-0.13333333,0,4000)" />
      <path
         id="path4"
         d="M 7970.79,15880.5 H 20273 c 485.3,0 878.7,393.5 878.7,878.8 0,485.3 -393.4,878.8 -878.7,878.8 H 7970.79 c -485.33,0 -878.73,-393.5 -878.73,-878.8 0,-485.3 393.4,-878.8 878.73,-878.8 v 0"
         style="fill:#000000;fill-opacity:1;fill-rule:nonzero;stroke:none"
         transform="matrix(0.13333333,0,0,-0.13333333,0,4000)" />
      <path
         id="path5"
         d="M 22027.5,14064.4 H 7967.86 c -485.33,0 -878.73,-393.5 -878.73,-878.8 0,-485.3 393.4,-878.8 878.73,-878.8 H 22027.5 c 485.4,0 878.8,393.5 878.8,878.8 0,485.3 -393.4,878.8 -878.8,878.8"
         style="fill:#000000;fill-opacity:1;fill-rule:nonzero;stroke:none"
         transform="matrix(0.13333333,0,0,-0.13333333,0,4000)" />
    </g>
  </g>
</svg>
